<svg width="159" height="19" viewBox="0 0 159 19" fill="none" xmlns="http://www.w3.org/2000/svg">
<path d="M0.776 18V15.24L6.08 9.672C6.752 8.936 7.232 8.296 7.52 7.752C7.824 7.192 7.976 6.632 7.976 6.072C7.976 4.632 7.088 3.912 5.312 3.912C4.624 3.912 3.936 4.048 3.248 4.32C2.56 4.576 1.888 4.976 1.232 5.52L0.032 2.784C0.736 2.176 1.6 1.696 2.624 1.344C3.664 0.992 4.728 0.816 5.816 0.816C7.704 0.816 9.144 1.24 10.136 2.088C11.144 2.92 11.648 4.112 11.648 5.664C11.648 6.688 11.408 7.672 10.928 8.616C10.464 9.544 9.696 10.552 8.624 11.64L5.36 14.952H12.272V18H0.776ZM29.3986 18.264C27.2386 18.264 25.5666 17.528 24.3826 16.056C23.2146 14.568 22.6306 12.472 22.6306 9.768C22.6306 6.936 23.2946 4.736 24.6226 3.168C25.9506 1.6 27.7906 0.816 30.1426 0.816C31.0546 0.816 31.9506 0.975999 32.8306 1.296C33.7266 1.616 34.5106 2.064 35.1826 2.64L33.9826 5.4C33.4066 4.904 32.7826 4.536 32.1106 4.296C31.4546 4.04 30.7826 3.912 30.0946 3.912C27.4706 3.912 26.1586 5.632 26.1586 9.072V9.528C26.4946 8.728 27.0146 8.112 27.7186 7.68C28.4226 7.232 29.2306 7.008 30.1426 7.008C31.1026 7.008 31.9506 7.248 32.6866 7.728C33.4386 8.192 34.0306 8.84 34.4626 9.672C34.8946 10.488 35.1106 11.424 35.1106 12.48C35.1106 13.6 34.8626 14.6 34.3666 15.48C33.8866 16.344 33.2146 17.024 32.3506 17.52C31.5026 18.016 30.5186 18.264 29.3986 18.264ZM29.2066 15.36C29.9426 15.36 30.5346 15.112 30.9826 14.616C31.4466 14.104 31.6786 13.44 31.6786 12.624C31.6786 11.824 31.4466 11.168 30.9826 10.656C30.5346 10.144 29.9426 9.888 29.2066 9.888C28.4546 9.888 27.8466 10.144 27.3826 10.656C26.9346 11.168 26.7106 11.824 26.7106 12.624C26.7106 13.44 26.9346 14.104 27.3826 14.616C27.8466 15.112 28.4546 15.36 29.2066 15.36ZM51.8533 18.264C50.5252 18.264 49.2692 18.096 48.0852 17.76C46.9172 17.424 45.9412 16.968 45.1572 16.392L46.2372 13.464C46.9892 13.992 47.8452 14.408 48.8052 14.712C49.7812 15.016 50.7972 15.168 51.8533 15.168C53.0052 15.168 53.8293 14.992 54.3253 14.64C54.8373 14.272 55.0933 13.816 55.0933 13.272C55.0933 12.808 54.9173 12.44 54.5653 12.168C54.2133 11.896 53.5973 11.664 52.7173 11.472L50.0052 10.896C46.9812 10.256 45.4692 8.688 45.4692 6.192C45.4692 5.12 45.7572 4.184 46.3332 3.384C46.9092 2.568 47.7092 1.936 48.7332 1.488C49.7732 1.04 50.9733 0.816 52.3333 0.816C53.5013 0.816 54.5972 0.983999 55.6213 1.32C56.6453 1.656 57.4933 2.128 58.1653 2.736L57.0852 5.472C55.7733 4.432 54.1813 3.912 52.3092 3.912C51.3012 3.912 50.5173 4.112 49.9573 4.512C49.4132 4.896 49.1412 5.4 49.1412 6.024C49.1412 6.488 49.3092 6.864 49.6452 7.152C49.9812 7.44 50.5652 7.672 51.3973 7.848L54.1093 8.424C57.2132 9.096 58.7652 10.616 58.7652 12.984C58.7652 14.04 58.4773 14.968 57.9013 15.768C57.3413 16.552 56.5413 17.168 55.5013 17.616C54.4773 18.048 53.2613 18.264 51.8533 18.264ZM74.6482 18.264C71.3362 18.264 69.6802 16.656 69.6802 13.44V8.928H67.4482V6.216H69.6802V2.76H73.3042V6.216H76.7842V8.928H73.3042V13.296C73.3042 13.968 73.4562 14.472 73.7602 14.808C74.0802 15.144 74.5842 15.312 75.2722 15.312C75.4802 15.312 75.6962 15.288 75.9202 15.24C76.1602 15.192 76.4162 15.128 76.6882 15.048L77.2162 17.688C76.8802 17.864 76.4802 18 76.0162 18.096C75.5522 18.208 75.0962 18.264 74.6482 18.264ZM91.0713 18.264C89.5673 18.264 88.4553 17.848 87.7353 17.016C87.0313 16.184 86.6793 14.936 86.6793 13.272V6.216H90.3033V13.368C90.3033 14.76 90.9033 15.456 92.1033 15.456C92.7913 15.456 93.3513 15.216 93.7833 14.736C94.2313 14.24 94.4553 13.592 94.4553 12.792V6.216H98.0793V18H94.5513V16.392C93.7673 17.64 92.6073 18.264 91.0713 18.264ZM113.628 18.264C112.604 18.264 111.7 18.016 110.916 17.52C110.148 17.008 109.548 16.296 109.116 15.384C108.684 14.456 108.468 13.36 108.468 12.096C108.468 10.832 108.684 9.744 109.116 8.832C109.548 7.92 110.148 7.216 110.916 6.72C111.7 6.224 112.604 5.976 113.628 5.976C114.412 5.976 115.132 6.144 115.788 6.48C116.444 6.816 116.94 7.264 117.276 7.824V1.08H120.9V18H117.348V16.224C117.028 16.848 116.532 17.344 115.86 17.712C115.204 18.08 114.46 18.264 113.628 18.264ZM114.708 15.552C115.476 15.552 116.1 15.272 116.58 14.712C117.076 14.152 117.324 13.28 117.324 12.096C117.324 10.928 117.076 10.072 116.58 9.528C116.1 8.968 115.476 8.688 114.708 8.688C113.94 8.688 113.316 8.968 112.836 9.528C112.356 10.072 112.116 10.928 112.116 12.096C112.116 13.28 112.356 14.152 112.836 14.712C113.316 15.272 113.94 15.552 114.708 15.552ZM131.708 3.936V0.551999H135.62V3.936H131.708ZM131.852 18V6.216H135.476V18H131.852ZM152.098 18.264C150.834 18.264 149.73 18.016 148.786 17.52C147.858 17.008 147.138 16.296 146.626 15.384C146.114 14.456 145.858 13.36 145.858 12.096C145.858 10.848 146.114 9.768 146.626 8.856C147.138 7.928 147.858 7.216 148.786 6.72C149.73 6.224 150.834 5.976 152.098 5.976C153.362 5.976 154.458 6.224 155.386 6.72C156.33 7.216 157.058 7.928 157.57 8.856C158.098 9.768 158.362 10.848 158.362 12.096C158.362 13.36 158.098 14.456 157.57 15.384C157.058 16.296 156.33 17.008 155.386 17.52C154.458 18.016 153.362 18.264 152.098 18.264ZM152.098 15.552C152.866 15.552 153.49 15.272 153.97 14.712C154.466 14.152 154.714 13.28 154.714 12.096C154.714 10.928 154.466 10.072 153.97 9.528C153.49 8.968 152.866 8.688 152.098 8.688C151.33 8.688 150.706 8.968 150.226 9.528C149.746 10.072 149.506 10.928 149.506 12.096C149.506 13.28 149.746 14.152 150.226 14.712C150.706 15.272 151.33 15.552 152.098 15.552Z" fill="white"/>
</svg>
