<svg width="22" height="22" viewBox="0 0 22 22" fill="none" xmlns="http://www.w3.org/2000/svg">
<path d="M0.5 2.83333V19.1667C0.5 20.45 1.53833 21.5 2.83333 21.5H19.1667C20.45 21.5 21.5 20.45 21.5 19.1667V2.83333C21.5 1.55 20.45 0.5 19.1667 0.5H2.83333C1.53833 0.5 0.5 1.55 0.5 2.83333ZM14.5 7.5C14.5 9.43667 12.9367 11 11 11C9.06333 11 7.5 9.43667 7.5 7.5C7.5 5.56333 9.06333 4 11 4C12.9367 4 14.5 5.56333 14.5 7.5ZM4 16.8333C4 14.5 8.66667 13.2167 11 13.2167C13.3333 13.2167 18 14.5 18 16.8333V18H4V16.8333Z" fill="white"/>
</svg>
