<svg width="20" height="25" viewBox="0 0 20 25" fill="none" xmlns="http://www.w3.org/2000/svg">
<path d="M17 8.33333H15.8333V6C15.8333 2.78 13.22 0.166668 9.99996 0.166668C6.77996 0.166668 4.16663 2.78 4.16663 6V8.33333H2.99996C1.71663 8.33333 0.666626 9.38334 0.666626 10.6667V22.3333C0.666626 23.6167 1.71663 24.6667 2.99996 24.6667H17C18.2833 24.6667 19.3333 23.6167 19.3333 22.3333V10.6667C19.3333 9.38334 18.2833 8.33333 17 8.33333ZM9.99996 18.8333C8.71663 18.8333 7.66663 17.7833 7.66663 16.5C7.66663 15.2167 8.71663 14.1667 9.99996 14.1667C11.2833 14.1667 12.3333 15.2167 12.3333 16.5C12.3333 17.7833 11.2833 18.8333 9.99996 18.8333ZM13.6166 8.33333H6.38329V6C6.38329 4.005 8.00496 2.38333 9.99996 2.38333C11.995 2.38333 13.6166 4.005 13.6166 6V8.33333Z" fill="white"/>
</svg>
